<svg xmlns="http://www.w3.org/2000/svg" width="111.212" height="84.132" viewBox="0 0 111.212 84.132">
  <path id="Icon_awesome-redhat" data-name="Icon awesome-redhat" d="M74.182,52.875c7.309,0,17.885-1.507,17.885-10.209.048-1.464.187-.4-4.535-20.9-1-4.16-1.885-6.047-9.19-9.7C72.674,9.166,60.33,4.38,56.679,4.38c-3.4,0-4.388,4.381-8.443,4.381-3.91,0-6.8-3.271-10.452-3.271-3.506,0-5.791,2.389-7.555,7.3-5.973,16.845-5.708,16.132-5.674,17,0,5.387,21.208,23.048,49.626,23.048m19-6.64c1.01,4.779,1.01,5.289,1.01,5.919,0,8.18-9.195,12.72-21.287,12.72-27.312.017-51.242-16-51.242-26.571a10.763,10.763,0,0,1,.882-4.283C12.72,34.477,0,36.23,0,47.46,0,65.851,43.579,88.513,78.085,88.513c26.454,0,33.127-11.964,33.127-21.413,0-7.431-6.427-15.867-18.013-20.9" transform="translate(0 -4.38)" fill="#fff"/>
</svg>
